<svg xmlns="http://www.w3.org/2000/svg" version="1.1" xmlns:xlink="http://www.w3.org/1999/xlink" xmlns:svgjs="http://svgjs.dev/svgjs" width="1500" height="1500" viewBox="0 0 1500 1500"><rect width="1500" height="1500" fill="#ffffff"></rect><g transform="matrix(0.6666666666666666,0,0,0.6666666666666666,249.39393939393938,664.0934510599793)"><svg viewBox="0 0 396 68" data-background-color="#ffffff" preserveAspectRatio="xMidYMid meet" height="257" width="1500" xmlns="http://www.w3.org/2000/svg" xmlns:xlink="http://www.w3.org/1999/xlink"><g id="tight-bounds" transform="matrix(1,0,0,1,0.2400000000000091,0.09520619409383357)"><svg viewBox="0 0 395.52 67.80958761181232" height="67.80958761181232" width="395.52"><g><svg viewBox="0 0 469.2678217397741 80.45321974025975" height="67.80958761181232" width="395.52"><g transform="matrix(1,0,0,1,73.7478217397741,1.416566580086588)"><svg viewBox="0 0 395.52 77.62008658008658" height="77.62008658008658" width="395.52"><g id="textblocktransform"><svg viewBox="0 0 395.52 77.62008658008658" height="77.62008658008658" width="395.52" id="textblock"><g><svg viewBox="0 0 395.52 77.62008658008658" height="77.62008658008658" width="395.52"><g transform="matrix(1,0,0,1,0,0)"><svg width="395.52" viewBox="3.71 -36.04 186.1 36.53" height="77.62008658008658" data-palette-color="#3581c4"><path d="M20.07 0.49L20.07 0.49Q14.6 0.49 10.96-1.84 7.32-4.17 5.52-8.34 3.71-12.5 3.71-17.97L3.71-17.97Q3.71-23.49 5.73-27.54 7.74-31.59 11.55-33.81 15.36-36.04 20.7-36.04L20.7-36.04Q23.44-36.04 25.74-35.41 28.05-34.79 29.81-33.73 31.57-32.67 32.62-31.3L32.62-31.3 30.27-28.71 29.86-28.71Q29.1-29.57 27.83-30.4 26.56-31.23 24.82-31.76 23.07-32.3 20.85-32.3L20.85-32.3Q16.8-32.3 14.06-30.52 11.33-28.74 9.94-25.51 8.54-22.29 8.54-17.99L8.54-17.99Q8.54-14.6 9.22-11.88 9.89-9.16 11.34-7.23 12.79-5.3 15.16-4.27 17.53-3.25 20.9-3.25L20.9-3.25Q23.29-3.25 25.11-3.58 26.93-3.91 28.2-4.27L28.2-4.27 28.2-15.09 20.21-15.63 20.43-18.77 32.52-18.77 32.52-1.78Q30.71-1.07 28.77-0.56 26.83-0.05 24.67 0.22 22.51 0.49 20.07 0.49ZM64.55 0L41.04 0 41.04-35.55 64.45-35.55 64.28-31.98 45.77-31.98 45.77-20.19 62.86-20.19 62.86-16.6 45.77-16.6 45.77-3.61 64.84-3.61 64.55 0ZM77.34 0L72.99 0 72.99-35.55 77.73-35.55 96.28-6.08 96.02-16.31 96.02-35.55 100.29-35.55 100.29 0 95.36 0 76.92-29.15 77.34-18.07 77.34 0ZM124.09 0.02L109.9 0.02 109.9-2.88 114.64-2.88 114.64-32.67 109.9-32.67 109.9-35.55 124.09-35.55 124.09-32.67 119.4-32.67 119.4-2.88 124.09-2.88 124.09 0.02ZM138.69 0L133.95 0 133.95-35.55 157.56-35.55 157.31-31.91 138.69-31.91 138.69-19.56 154.58-19.56 154.58-16.09 138.69-16.09 138.69 0ZM177.43 0L172.69 0 172.69-12.62 160.22-35.55 164.71-35.55 175.04-16.7 185.07-35.55 189.81-35.55 177.43-12.55 177.43 0Z" opacity="1" transform="matrix(1,0,0,1,0,0)" fill="#000000" class="wordmark-text-0" data-fill-palette-color="primary" id="text-0"></path></svg></g></svg></g></svg></g></svg></g><g><svg viewBox="0 0 55.42358218029358 80.45321974025975" height="80.45321974025975" width="55.42358218029358"><g><svg xmlns="http://www.w3.org/2000/svg" xmlns:xlink="http://www.w3.org/1999/xlink" version="1.1" x="0" y="0" viewBox="33.435 23.608 38.941 56.527" enable-background="new 0 0 100 100" xml:space="preserve" height="80.45321974025975" width="55.42358218029358" class="icon-icon-0" data-fill-palette-color="accent" id="icon-0"><g fill="#703f13" data-fill-palette-color="accent"><g fill="#703f13" data-fill-palette-color="accent"><path fill="#000000" d="M55.876 23.608H49.948C47.467 23.608 45.448 25.627 45.448 28.108S47.467 32.608 49.948 32.608A1.5 1.5 0 1 0 49.948 29.608C49.121 29.608 48.448 28.935 48.448 28.108S49.121 26.608 49.948 26.608H55.876C63.32 26.608 69.376 32.664 69.376 40.108V42.874C69.376 50.318 63.32 56.374 55.876 56.374A1.5 1.5 0 1 0 55.876 59.374C64.974 59.374 72.376 51.972 72.376 42.874V40.108C72.376 31.01 64.974 23.608 55.876 23.608" data-fill-palette-color="accent"></path><path fill="#000000" d="M49.948 56.374C49.121 56.374 48.448 55.701 48.448 54.874S49.121 53.374 49.948 53.374H55.876C61.666 53.374 66.376 48.664 66.376 42.874V40.108C66.376 34.318 61.666 29.608 55.876 29.608A1.5 1.5 0 1 0 55.876 32.608C60.012 32.608 63.376 35.972 63.376 40.108V42.874C63.376 47.01 60.012 50.374 55.876 50.374H49.948C47.467 50.374 45.448 52.393 45.448 54.874S47.467 59.374 49.948 59.374A1.5 1.5 0 1 0 49.948 56.374" data-fill-palette-color="accent"></path><path fill="#000000" d="M37.935 23.608C35.557 23.608 33.624 25.467 33.465 27.805 33.445 27.903 33.435 28.004 33.435 28.108V75.635C33.435 75.739 33.446 75.84 33.465 75.938 33.624 78.276 35.557 80.135 37.935 80.135 40.416 80.135 42.435 78.116 42.435 75.635A1.5 1.5 0 1 0 39.435 75.635C39.435 76.462 38.762 77.135 37.935 77.135S36.435 76.462 36.435 75.635V28.108C36.435 27.281 37.108 26.608 37.935 26.608S39.435 27.281 39.435 28.108A1.5 1.5 0 1 0 42.435 28.108C42.435 25.627 40.416 23.608 37.935 23.608" data-fill-palette-color="accent"></path><path fill="#000000" d="M40.935 32.608A1.5 1.5 0 0 0 39.435 34.108V69.635A1.5 1.5 0 1 0 42.435 69.635V34.108A1.5 1.5 0 0 0 40.935 32.608" data-fill-palette-color="accent"></path></g></g></svg></g></svg></g></svg></g><defs></defs></svg><rect width="395.52" height="67.80958761181232" fill="none" stroke="none" visibility="hidden"></rect></g></svg></g></svg>