<svg xmlns="http://www.w3.org/2000/svg" version="1.1" xmlns:xlink="http://www.w3.org/1999/xlink" xmlns:svgjs="http://svgjs.dev/svgjs" width="1500" height="1500" viewBox="0 0 1500 1500"><rect width="1500" height="1500" fill="#ffffff"></rect><g transform="matrix(0.6666666666666666,0,0,0.6666666666666666,249.39393939393938,650.2871724452493)"><svg viewBox="0 0 396 79" data-background-color="#ffffff" preserveAspectRatio="xMidYMid meet" height="299" width="1500" xmlns="http://www.w3.org/2000/svg" xmlns:xlink="http://www.w3.org/1999/xlink"><g id="tight-bounds" transform="matrix(1,0,0,1,0.2400000000000091,0.018294532568461364)"><svg viewBox="0 0 395.52 78.96341093486305" height="78.96341093486305" width="395.52"><g><svg viewBox="0 0 526.5511818464369 105.12307177987965" height="78.96341093486305" width="395.52"><g><rect width="6.85970123018786" height="76.44622803095443" x="90.3757797910826" y="14.338421874462611" fill="#4e0bff" opacity="1" stroke-width="0" stroke="transparent" fill-opacity="1" class="rect-yte-0" data-fill-palette-color="primary" rx="1%" id="yte-0" data-palette-color="#4e0bff"></rect></g><g><rect width="6.85970123018786" height="76.44622803095443" x="106.21414755292999" y="14.338421874462611" fill="#4e0bff" opacity="1" stroke-width="0" stroke="transparent" fill-opacity="1" class="rect-yte-1" data-fill-palette-color="primary" rx="1%" id="yte-1" data-palette-color="#4e0bff"></rect></g><g transform="matrix(1,0,0,1,131.03118184643685,14.528586620808262)"><svg viewBox="0 0 395.52 76.06589853826313" height="76.06589853826313" width="395.52"><g id="textblocktransform"><svg viewBox="0 0 395.52 76.06589853826313" height="76.06589853826313" width="395.52" id="textblock"><g><svg viewBox="0 0 395.52 76.06589853826313" height="76.06589853826313" width="395.52"><g transform="matrix(1,0,0,1,0,0)"><svg width="395.52" viewBox="2.45 -32.55 174.44 33.55" height="76.06589853826313" data-palette-color="#4e0bff"><path d="M17.95 1L17.95 1Q13.75 1 10.23-0.78 6.7-2.55 4.58-6.23 2.45-9.9 2.45-15.55L2.45-15.55Q2.45-20.65 4.67-24.48 6.9-28.3 10.85-30.43 14.8-32.55 19.9-32.55L19.9-32.55Q21.65-32.55 23.5-32.15 25.35-31.75 26.95-30.93 28.55-30.1 29.53-28.75 30.5-27.4 30.5-25.5L30.5-25.5Q30.5-23.45 29.25-21.78 28-20.1 25.75-20.1L25.75-20.1Q24.8-20.1 23.78-20.58 22.75-21.05 22.7-21.9L22.7-21.9Q22.7-22.05 23.33-22.45 23.95-22.85 24.58-23.68 25.2-24.5 25.2-25.85L25.2-25.85Q25.2-28 23.55-29.28 21.9-30.55 19.3-30.55L19.3-30.55Q16.25-30.55 13.75-28.85 11.25-27.15 9.78-23.88 8.3-20.6 8.3-15.85L8.3-15.85Q8.3-11.35 9.73-8.13 11.15-4.9 13.73-3.18 16.3-1.45 19.7-1.45L19.7-1.45Q21.35-1.45 22.55-1.65 23.75-1.85 25.1-2.25L25.1-2.25 25.1-7.35Q25.1-8.75 25-9.58 24.9-10.4 24.3-10.8 23.7-11.2 22.2-11.2L22.2-11.2Q21.7-11.2 21.28-11.3 20.85-11.4 20.8-12.25L20.8-12.25Q20.8-12.65 21.08-13 21.35-13.35 21.85-13.35L21.85-13.35Q23.45-13.3 24.55-13.25 25.65-13.2 27.35-13.2L27.35-13.2Q29.05-13.2 30.13-13.25 31.2-13.3 32.75-13.35L32.75-13.35Q33.25-13.35 33.48-13 33.7-12.65 33.7-12.25L33.7-12.25Q33.65-11.4 33.25-11.3 32.85-11.2 32.3-11.2L32.3-11.2Q30.9-11.2 30.33-10.78 29.75-10.35 29.63-9.5 29.5-8.65 29.5-7.35L29.5-7.35 29.5-1.45Q27.55-0.55 25.88 0 24.2 0.55 22.33 0.78 20.45 1 17.95 1ZM37.35 0.15L37.35 0.15Q36.9 0.15 36.7-0.2 36.5-0.55 36.5-0.95L36.5-0.95Q36.55-1.8 36.9-1.9 37.25-2 37.75-2L37.75-2Q39.35-2 40-2.58 40.65-3.15 40.82-4.03 41-4.9 41-5.85L41-5.85 41-25.7Q41-26.65 40.82-27.53 40.65-28.4 40-28.98 39.35-29.55 37.75-29.55L37.75-29.55Q37.25-29.55 36.9-29.65 36.55-29.75 36.5-30.6L36.5-30.6Q36.5-31 36.7-31.35 36.9-31.7 37.35-31.7L37.35-31.7Q39-31.65 40.4-31.6 41.8-31.55 43.3-31.55L43.3-31.55 59-31.55Q59.55-31.55 59.92-31.3 60.3-31.05 60.3-30.35L60.3-30.35 60.45-23.35Q60.45-22.85 59.97-22.6 59.5-22.35 59.1-22.35L59.1-22.35Q58.55-22.35 58.1-22.58 57.65-22.8 57.55-23.25L57.55-23.25Q57.2-25.5 56.72-26.88 56.25-28.25 55.32-28.88 54.4-29.5 52.65-29.55L52.65-29.55 45.95-29.55 45.95-16.85 55-16.85Q55.4-16.8 55.57-16.45 55.75-16.1 55.75-15.7L55.75-15.7Q55.75-15.35 55.57-15.03 55.4-14.7 55-14.7L55-14.7 45.95-14.7 45.95-5.25Q46-4.6 46.15-3.83 46.3-3.05 47.02-2.5 47.75-1.95 49.45-2L49.45-2 54.05-2Q55.8-2.05 56.72-2.58 57.65-3.1 58.2-4.35 58.75-5.6 59.4-7.8L59.4-7.8Q59.6-8.3 60.07-8.45 60.55-8.6 61.1-8.5L61.1-8.5Q61.5-8.45 61.92-8.15 62.35-7.85 62.3-7.35L62.3-7.35 61.3-1.05Q61.15-0.35 60.82-0.18 60.5 0 59.85 0L59.85 0 43.35 0Q41.85 0 40.42 0.03 39 0.05 37.35 0.15ZM67.15 0.15L67.15 0.15Q66.65 0.15 66.45-0.2 66.25-0.55 66.25-0.95L66.25-0.95Q66.3-1.8 66.65-1.9 67-2 67.5-2L67.5-2Q69.1-2 69.72-2.58 70.35-3.15 70.5-4.03 70.65-4.9 70.65-5.85L70.65-5.85 70.75-25.7Q70.75-28.05 69.95-28.7 69.15-29.35 67.4-29.7L67.4-29.7Q66.65-29.85 66.4-29.98 66.15-30.1 66.15-30.85L66.15-30.85Q66.15-31.7 66.75-31.78 67.35-31.85 68.15-31.85L68.15-31.85Q70.95-31.85 72.67-31.4 74.4-30.95 75.72-29.8 77.05-28.65 78.6-26.55L78.6-26.55 92.3-8.55 92.45-8.55 92.35-25.7Q92.35-26.65 92.2-27.53 92.05-28.4 91.42-28.98 90.8-29.55 89.2-29.55L89.2-29.55Q88.7-29.55 88.35-29.65 88-29.75 87.9-30.6L87.9-30.6Q87.9-31 88.12-31.35 88.35-31.7 88.8-31.7L88.8-31.7Q89.9-31.65 90.57-31.63 91.25-31.6 91.92-31.58 92.6-31.55 93.6-31.55L93.6-31.55Q94.6-31.55 95.25-31.58 95.9-31.6 96.57-31.63 97.25-31.65 98.3-31.7L98.3-31.7Q98.8-31.7 99-31.35 99.2-31 99.2-30.6L99.2-30.6Q99.15-29.75 98.82-29.65 98.5-29.55 97.95-29.55L97.95-29.55Q96.4-29.55 95.75-28.98 95.1-28.4 94.97-27.53 94.85-26.65 94.8-25.7L94.8-25.7 94.7-0.5Q94.65-0.1 94.22 0.03 93.8 0.15 93.45 0.15L93.45 0.15Q92.5 0.15 92-0.5L92-0.5 73.15-25.7 73-25.7 73.1-5.85Q73.15-4.9 73.27-4.03 73.4-3.15 74.05-2.58 74.7-2 76.25-2L76.25-2Q76.8-2 77.15-1.9 77.5-1.8 77.55-0.95L77.55-0.95Q77.55-0.55 77.32-0.2 77.1 0.15 76.65 0.15L76.65 0.15Q75.6 0.1 74.87 0.08 74.15 0.05 73.47 0.03 72.8 0 71.8 0L71.8 0Q70.8 0 70.17 0.03 69.55 0.05 68.9 0.08 68.25 0.1 67.15 0.15ZM103.89 0.15L103.89 0.15Q103.39 0.15 103.19-0.2 102.99-0.55 102.99-0.95L102.99-0.95Q103.04-1.8 103.39-1.9 103.74-2 104.24-2L104.24-2Q105.84-2 106.49-2.58 107.14-3.15 107.32-4.03 107.49-4.9 107.54-5.85L107.54-5.85 107.54-25.7Q107.49-26.65 107.32-27.53 107.14-28.4 106.49-28.98 105.84-29.55 104.24-29.55L104.24-29.55Q103.74-29.55 103.39-29.65 103.04-29.75 102.99-30.6L102.99-30.6Q102.99-31 103.19-31.35 103.39-31.7 103.89-31.7L103.89-31.7Q105.49-31.65 106.92-31.6 108.34-31.55 109.84-31.55L109.84-31.55Q112.89-31.55 116.09-31.7L116.09-31.7Q116.54-31.7 116.77-31.35 116.99-31 116.99-30.6L116.99-30.6Q116.94-29.75 116.59-29.65 116.24-29.55 115.69-29.55L115.69-29.55Q114.14-29.55 113.47-28.98 112.79-28.4 112.64-27.53 112.49-26.65 112.44-25.7L112.44-25.7 112.44-5.85Q112.49-4.9 112.64-4.03 112.79-3.15 113.47-2.58 114.14-2 115.69-2L115.69-2Q116.24-2 116.59-1.9 116.94-1.8 116.99-0.95L116.99-0.95Q116.99-0.55 116.77-0.2 116.54 0.15 116.09 0.15L116.09 0.15Q112.89 0 109.89 0L109.89 0Q108.39 0 106.94 0.03 105.49 0.05 103.89 0.15ZM122.09 0.15L122.09 0.15Q121.64 0.15 121.44-0.2 121.24-0.55 121.24-0.95L121.24-0.95Q121.29-1.8 121.64-1.9 121.99-2 122.49-2L122.49-2Q124.09-2 124.74-2.58 125.39-3.15 125.57-4.03 125.74-4.9 125.74-5.85L125.74-5.85 125.74-25.7Q125.74-26.65 125.57-27.53 125.39-28.4 124.74-28.98 124.09-29.55 122.49-29.55L122.49-29.55Q121.99-29.55 121.64-29.65 121.29-29.75 121.24-30.6L121.24-30.6Q121.24-31 121.44-31.35 121.64-31.7 122.09-31.7L122.09-31.7Q123.69-31.65 125.12-31.6 126.54-31.55 128.04-31.55L128.04-31.55 142.49-31.55Q143.04-31.55 143.42-31.3 143.79-31.05 143.79-30.35L143.79-30.35 143.94-23.35Q143.94-22.85 143.47-22.6 142.99-22.35 142.59-22.35L142.59-22.35Q142.04-22.35 141.57-22.58 141.09-22.8 140.99-23.25L140.99-23.25Q140.69-25.5 140.22-26.88 139.74-28.25 138.82-28.88 137.89-29.5 136.14-29.55L136.14-29.55 130.69-29.55 130.69-16.55 139.64-16.55Q140.04-16.5 140.24-16.15 140.44-15.8 140.44-15.4L140.44-15.4Q140.44-15.05 140.24-14.73 140.04-14.4 139.64-14.4L139.64-14.4 130.69-14.4 130.69-5.85Q130.74-4.9 130.89-4.03 131.04-3.15 131.72-2.58 132.39-2 133.94-2L133.94-2Q134.44-2 134.79-1.9 135.14-1.8 135.19-0.95L135.19-0.95Q135.19-0.55 134.99-0.2 134.79 0.15 134.29 0.15L134.29 0.15Q131.09 0 128.09 0L128.09 0Q126.59 0 125.14 0.03 123.69 0.05 122.09 0.15ZM154.84 0.15L154.84 0.15Q154.34 0.15 154.14-0.2 153.94-0.55 153.94-0.95L153.94-0.95Q153.99-1.8 154.34-1.9 154.69-2 155.19-2L155.19-2Q156.79-2 157.44-2.58 158.09-3.15 158.26-4.03 158.44-4.9 158.44-5.85L158.44-5.85 158.44-12.1Q158.44-12.45 157.91-13.73 157.39-15 156.56-16.7 155.74-18.4 154.84-20.2 153.94-22 153.16-23.48 152.39-24.95 151.94-25.75L151.94-25.75Q150.89-27.65 149.64-28.48 148.39-29.3 146.79-29.65L146.79-29.65Q146.09-29.8 145.81-29.9 145.54-30 145.54-30.8L145.54-30.8Q145.54-31.65 146.14-31.73 146.74-31.8 147.54-31.8L147.54-31.8Q151.09-31.8 153.26-30.7 155.44-29.6 157.14-26.6L157.14-26.6Q158.59-23.9 159.76-21.35 160.94-18.8 162.39-16.15L162.39-16.15 162.54-16.15 168.09-27.1Q168.94-28.8 168.29-29.18 167.64-29.55 165.89-29.55L165.89-29.55Q165.39-29.55 165.04-29.65 164.69-29.75 164.64-30.6L164.64-30.6Q164.64-31 164.84-31.35 165.04-31.7 165.49-31.7L165.49-31.7Q167.09-31.65 168.26-31.6 169.44-31.55 170.94-31.55L170.94-31.55Q172.44-31.55 173.41-31.6 174.39-31.65 175.99-31.7L175.99-31.7Q176.49-31.7 176.69-31.35 176.89-31 176.89-30.6L176.89-30.6Q176.84-29.75 176.51-29.65 176.19-29.55 175.64-29.55L175.64-29.55Q173.74-29.55 172.54-28.73 171.34-27.9 170.39-26.15L170.39-26.15 164.74-15.5Q164.29-14.55 163.99-13.9 163.69-13.25 163.54-12.55 163.39-11.85 163.39-10.7L163.39-10.7 163.39-5.85Q163.44-4.9 163.59-4.03 163.74-3.15 164.41-2.58 165.09-2 166.64-2L166.64-2Q167.19-2 167.51-1.9 167.84-1.8 167.89-0.95L167.89-0.95Q167.89-0.55 167.69-0.2 167.49 0.15 167.04 0.15L167.04 0.15Q165.44 0.05 163.99 0.03 162.54 0 161.04 0L161.04 0Q158.09 0 154.84 0.15Z" opacity="1" transform="matrix(1,0,0,1,0,0)" fill="#4e0bff" class="wordmark-text-0" data-fill-palette-color="primary" id="text-0"></path></svg></g></svg></g></svg></g></svg></g><g><svg viewBox="0 0 72.41844672776361 105.12307177987965" height="105.12307177987965" width="72.41844672776361"><g><svg xmlns="http://www.w3.org/2000/svg" xmlns:xlink="http://www.w3.org/1999/xlink" version="1.1" x="0" y="0" viewBox="33.435 23.608 38.941 56.527" enable-background="new 0 0 100 100" xml:space="preserve" height="105.12307177987965" width="72.41844672776361" class="icon-icon-0" data-fill-palette-color="accent" id="icon-0"><g fill="#ab0ae7" data-fill-palette-color="accent"><g fill="#ab0ae7" data-fill-palette-color="accent"><path fill="#ab0ae7" d="M55.876 23.608H49.948C47.467 23.608 45.448 25.627 45.448 28.108S47.467 32.608 49.948 32.608A1.5 1.5 0 1 0 49.948 29.608C49.121 29.608 48.448 28.935 48.448 28.108S49.121 26.608 49.948 26.608H55.876C63.32 26.608 69.376 32.664 69.376 40.108V42.874C69.376 50.318 63.32 56.374 55.876 56.374A1.5 1.5 0 1 0 55.876 59.374C64.974 59.374 72.376 51.972 72.376 42.874V40.108C72.376 31.01 64.974 23.608 55.876 23.608" data-fill-palette-color="accent"></path><path fill="#ab0ae7" d="M49.948 56.374C49.121 56.374 48.448 55.701 48.448 54.874S49.121 53.374 49.948 53.374H55.876C61.666 53.374 66.376 48.664 66.376 42.874V40.108C66.376 34.318 61.666 29.608 55.876 29.608A1.5 1.5 0 1 0 55.876 32.608C60.012 32.608 63.376 35.972 63.376 40.108V42.874C63.376 47.01 60.012 50.374 55.876 50.374H49.948C47.467 50.374 45.448 52.393 45.448 54.874S47.467 59.374 49.948 59.374A1.5 1.5 0 1 0 49.948 56.374" data-fill-palette-color="accent"></path><path fill="#ab0ae7" d="M37.935 23.608C35.557 23.608 33.624 25.467 33.465 27.805 33.445 27.903 33.435 28.004 33.435 28.108V75.635C33.435 75.739 33.446 75.84 33.465 75.938 33.624 78.276 35.557 80.135 37.935 80.135 40.416 80.135 42.435 78.116 42.435 75.635A1.5 1.5 0 1 0 39.435 75.635C39.435 76.462 38.762 77.135 37.935 77.135S36.435 76.462 36.435 75.635V28.108C36.435 27.281 37.108 26.608 37.935 26.608S39.435 27.281 39.435 28.108A1.5 1.5 0 1 0 42.435 28.108C42.435 25.627 40.416 23.608 37.935 23.608" data-fill-palette-color="accent"></path><path fill="#ab0ae7" d="M40.935 32.608A1.5 1.5 0 0 0 39.435 34.108V69.635A1.5 1.5 0 1 0 42.435 69.635V34.108A1.5 1.5 0 0 0 40.935 32.608" data-fill-palette-color="accent"></path></g></g></svg></g></svg></g></svg></g><defs></defs></svg><rect width="395.52" height="78.96341093486305" fill="none" stroke="none" visibility="hidden"></rect></g></svg></g></svg>